<?xml version="1.0" encoding="UTF-8" standalone="no"?>
<!-- Generator: Adobe Illustrator 16.0.0, SVG Export Plug-In . SVG Version: 6.00 Build 0)  -->

<svg
   xmlns:dc="http://purl.org/dc/elements/1.1/"
   xmlns:cc="http://creativecommons.org/ns#"
   xmlns:rdf="http://www.w3.org/1999/02/22-rdf-syntax-ns#"
   xmlns:svg="http://www.w3.org/2000/svg"
   xmlns="http://www.w3.org/2000/svg"
   xmlns:sodipodi="http://sodipodi.sourceforge.net/DTD/sodipodi-0.dtd"
   xmlns:inkscape="http://www.inkscape.org/namespaces/inkscape"
   version="1.1"
   id="Layer_1"
   x="0px"
   y="0px"
   width="74px"
   height="56px"
   viewBox="0 0 74 56"
   enable-background="new 0 0 74 56"
   xml:space="preserve"
   sodipodi:docname="processControl-capability.svg"
   inkscape:version="0.92.3 (2405546, 2018-03-11)"
   inkscape:export-filename="C:\Users\derksk\OneDrive - Nyenrode Business Universiteit\Desktop\audit-fullaudit.png"
   inkscape:export-xdpi="377"
   inkscape:export-ydpi="377"><metadata
   id="metadata2713"><rdf:RDF><cc:Work
       rdf:about=""><dc:format>image/svg+xml</dc:format><dc:type
         rdf:resource="http://purl.org/dc/dcmitype/StillImage" /><dc:title /></cc:Work></rdf:RDF></metadata><defs
   id="defs2711" /><sodipodi:namedview
   pagecolor="#ffffff"
   bordercolor="#666666"
   borderopacity="1"
   objecttolerance="10"
   gridtolerance="10"
   guidetolerance="10"
   inkscape:pageopacity="0"
   inkscape:pageshadow="2"
   inkscape:window-width="1920"
   inkscape:window-height="1001"
   id="namedview2709"
   showgrid="false"
   inkscape:zoom="7.03"
   inkscape:cx="49.65228"
   inkscape:cy="17.589805"
   inkscape:window-x="-9"
   inkscape:window-y="-9"
   inkscape:window-maximized="1"
   inkscape:current-layer="Layer_1" />









<rect
   style="fill:#000000;fill-opacity:1;stroke:#000400;stroke-width:0;stroke-linecap:round;stroke-linejoin:bevel;stroke-miterlimit:10;stroke-dasharray:none;stroke-opacity:1;paint-order:normal"
   id="rect923"
   width="9.0329103"
   height="1.4022318"
   x="-28.399067"
   y="46.910683"
   transform="matrix(0.73561757,-0.67739706,0.673945,0.73878152,0,0)" /><rect
   style="fill:#000000;fill-opacity:1;stroke:#000400;stroke-width:0;stroke-linecap:round;stroke-linejoin:bevel;stroke-miterlimit:10;stroke-dasharray:none;stroke-opacity:1;paint-order:normal"
   id="rect923-4"
   width="9.0329103"
   height="1.4022318"
   x="-17.176451"
   y="46.910683"
   transform="matrix(0.73561757,-0.67739706,0.673945,0.73878152,0,0)" /><rect
   style="fill:#000000;fill-opacity:1;stroke:#000400;stroke-width:0;stroke-linecap:round;stroke-linejoin:bevel;stroke-miterlimit:10;stroke-dasharray:none;stroke-opacity:1;paint-order:normal"
   id="rect923-0"
   width="9.0329103"
   height="1.4022318"
   x="-5.9538398"
   y="46.910683"
   transform="matrix(0.73561757,-0.67739706,0.673945,0.73878152,0,0)" /><rect
   style="fill:#000000;fill-opacity:1;stroke:#000400;stroke-width:0;stroke-linecap:round;stroke-linejoin:bevel;stroke-miterlimit:10;stroke-dasharray:none;stroke-opacity:1;paint-order:normal"
   id="rect923-1"
   width="9.0329103"
   height="1.4022318"
   x="5.2687716"
   y="46.910683"
   transform="matrix(0.73561757,-0.67739706,0.673945,0.73878152,0,0)" /><rect
   style="fill:#000000;fill-opacity:1;stroke:#000400;stroke-width:0;stroke-linecap:round;stroke-linejoin:bevel;stroke-miterlimit:10;stroke-dasharray:none;stroke-opacity:1;paint-order:normal"
   id="rect923-9"
   width="9.0329103"
   height="1.4022318"
   x="16.491383"
   y="46.910683"
   transform="matrix(0.73561757,-0.67739706,0.673945,0.73878152,0,0)" /><rect
   style="fill:#000000;fill-opacity:1;stroke:#000400;stroke-width:0;stroke-linecap:round;stroke-linejoin:bevel;stroke-miterlimit:10;stroke-dasharray:none;stroke-opacity:1;paint-order:normal"
   id="rect923-3"
   width="9.0329103"
   height="1.4022318"
   x="27.713993"
   y="46.910683"
   transform="matrix(0.73561757,-0.67739706,0.673945,0.73878152,0,0)" /><rect
   style="fill:#000000;fill-opacity:1;stroke:#000400;stroke-width:0;stroke-linecap:round;stroke-linejoin:bevel;stroke-miterlimit:10;stroke-dasharray:none;stroke-opacity:1;paint-order:normal"
   id="rect923-99"
   width="9.0329103"
   height="1.4022318"
   x="38.936604"
   y="46.910683"
   transform="matrix(0.73561757,-0.67739706,0.673945,0.73878152,0,0)" /><rect
   style="fill:#2e0000;fill-opacity:1;stroke:#380000;stroke-width:1.09264088;stroke-linecap:round;stroke-linejoin:bevel;stroke-miterlimit:10;stroke-dasharray:none;stroke-opacity:1;paint-order:normal"
   id="rect853"
   width="80.761208"
   height="1.329466"
   x="-30.537622"
   y="40.500889"
   transform="matrix(0.77905893,-0.6269507,0.61322035,0.7899119,0,0)" /><rect
   style="fill:#000000;fill-opacity:1;stroke:#380000;stroke-width:0.98865962;stroke-linecap:round;stroke-linejoin:bevel;stroke-miterlimit:10;stroke-dasharray:none;stroke-opacity:1;paint-order:normal"
   id="rect853-9"
   width="67.006424"
   height="1.1310819"
   x="-20.068409"
   y="57.75565"
   transform="matrix(0.6127323,-0.79029053,0.75534267,0.65533003,0,0)" /><path
   style="fill:#c65000;fill-opacity:1;stroke-width:0.03980183"
   inkscape:connector-curvature="0"
   d="M 59.825361,18.594532 C 59.05027,16.887243 58.505038,14.540987 57.977732,12.271845 57.464054,10.061562 56.932753,7.7759702 56.179126,6.0668735 55.74825,5.0895519 55.274603,4.3606377 54.731448,3.8384805 54.053752,3.1871364 53.264077,2.8567861 52.384394,2.8567861 c -0.875361,0 -1.659584,0.3270295 -2.330716,0.9721864 -0.538031,0.5171793 -1.005263,1.2391496 -1.428448,2.2069572 -0.739212,1.6911458 -1.232395,3.8566049 -1.754407,6.1494423 -0.520413,2.286191 -1.058604,4.650105 -1.842023,6.374752 -0.647751,1.426286 -1.301431,2.059824 -1.870535,2.333581 v 0 0 0 l 16.295173,0.1983 h 1.797972 c -0.666979,0 -0.40989,-0.258821 -1.426049,-2.497473 z M 48.474663,12.509385 c 0.505999,-2.222811 0.98412,-4.3223242 1.667268,-5.884888 0.870879,-1.9919123 1.696903,-2.2223561 2.242463,-2.2223561 0.551324,0 1.387766,0.2340667 2.280108,2.2576732 0.697398,1.581573 1.212688,3.7986489 1.710995,5.9426849 0.543634,2.339163 1.105854,4.758013 1.941811,6.599611 0.347903,0.766493 0.722716,1.39022 1.13613,1.889895 L 44.917053,20.907887 c 0.426068,-0.507526 1.264692,-0.958299 1.619803,-1.739884 0.845725,-1.861975 1.400896,-4.30044 1.937807,-6.658618 z"
   id="path2-0"
   sodipodi:nodetypes="ccccscccccccccccccsccccccc" /><path
   style="fill:#fb8c00;fill-opacity:1;stroke-width:0.05413467"
   inkscape:connector-curvature="0"
   d="M 43.684825,28.7547 C 42.641612,26.408146 41.907767,23.183371 41.198056,20.064586 40.506681,17.026698 39.791592,13.885304 38.777258,11.536264 38.197336,10.193001 37.559845,9.1911549 36.828804,8.4734857 35.916663,7.5782559 34.853822,7.1242109 33.669835,7.1242109 c -1.178173,0 -2.233679,0.4494811 -3.136972,1.3362061 -0.724151,0.7108288 -1.353012,1.70313 -1.922587,3.033317 -0.994924,2.324368 -1.658709,5.300648 -2.361301,8.452001 -0.700435,3.142219 -1.424801,6.39126 -2.479227,8.761673 -0.871823,1.960336 -1.751628,2.831092 -2.5176,3.207351 v 0 0 0 l 21.932097,0.272552 h 2.419934 c -0.897694,0 -0.551677,-0.355732 -1.919354,-3.432611 z m -15.2772,-8.363633 c 0.681035,-3.055104 1.324558,-5.940747 2.244025,-8.088385 1.172138,-2.7377529 2.283904,-3.0544827 3.018185,-3.0544827 0.742044,0 1.867822,0.3217087 3.068846,3.1030227 0.93866,2.173767 1.632197,5.220991 2.302883,8.167825 0.731691,3.215025 1.488396,6.539573 2.613533,9.070728 0.468256,1.053494 0.972726,1.910766 1.529148,2.597536 L 23.619347,31.934252 c 0.573455,-0.69756 1.702183,-1.317119 2.180133,-2.391354 1.138289,-2.559162 1.885506,-5.910669 2.608145,-9.151831 z"
   id="path2-9"
   sodipodi:nodetypes="ccccscccccccccccccsccccccc" /><path
   style="fill:#c65000;fill-opacity:1;stroke-width:0.1;stroke-miterlimit:10;stroke-dasharray:none"
   inkscape:connector-curvature="0"
   d="M 37.571587,47.319911 C 36.091262,44.273677 35.04993,40.087361 34.042851,36.03864 33.061783,32.094934 32.047062,28.016861 30.607728,24.9674 c -0.822916,-1.743789 -1.727511,-3.044357 -2.764866,-3.976017 -1.294328,-1.162162 -2.802503,-1.751591 -4.482588,-1.751591 -1.671828,0 -3.169593,0.583503 -4.451376,1.734626 -1.027565,0.922779 -1.919926,2.210958 -2.728156,3.937771 -1.411801,3.01743 -2.353715,6.881157 -3.350696,10.97216 -0.993921,4.079144 -2.021798,8.296961 -3.5180314,11.374168 -1.2371216,2.544855 -2.4855676,3.675248 -3.572485,4.163696 v 0 0 0 l 31.1217254,0.353821 h 3.4339 c -1.273838,0 -0.782832,-0.461803 -2.723568,-4.456123 z M 15.893179,36.462467 c 0.966392,-3.966054 1.879549,-7.712118 3.184276,-10.500124 1.663269,-3.554077 3.240872,-3.965246 4.282819,-3.965246 1.052962,0 2.650452,0.417633 4.354711,4.028259 1.331956,2.821926 2.316087,6.77775 3.267796,10.603252 1.038272,4.173658 2.112038,8.489498 3.708611,11.775374 0.664457,1.367618 1.380296,2.480506 2.169863,3.372052 L 9.0985942,51.447519 c 0.8137348,-0.905553 2.4154028,-1.709848 3.0936168,-3.104392 1.615236,-3.322233 2.675541,-7.673073 3.700968,-11.88066 z"
   id="path2"
   sodipodi:nodetypes="ccccscccccccccccccsccccccc" /></svg>