<?xml version="1.0" encoding="UTF-8" standalone="no"?>
<!-- Generator: Adobe Illustrator 16.0.0, SVG Export Plug-In . SVG Version: 6.00 Build 0)  -->

<svg
   xmlns:dc="http://purl.org/dc/elements/1.1/"
   xmlns:cc="http://creativecommons.org/ns#"
   xmlns:rdf="http://www.w3.org/1999/02/22-rdf-syntax-ns#"
   xmlns:svg="http://www.w3.org/2000/svg"
   xmlns="http://www.w3.org/2000/svg"
   xmlns:sodipodi="http://sodipodi.sourceforge.net/DTD/sodipodi-0.dtd"
   xmlns:inkscape="http://www.inkscape.org/namespaces/inkscape"
   version="1.1"
   id="Layer_1"
   x="0px"
   y="0px"
   width="74px"
   height="56px"
   viewBox="0 0 74 56"
   enable-background="new 0 0 74 56"
   xml:space="preserve"
   sodipodi:docname="processControl-measurement.svg"
   inkscape:version="0.92.3 (2405546, 2018-03-11)"
   inkscape:export-filename="C:\Users\derksk\OneDrive - Nyenrode Business Universiteit\Desktop\audit-fullaudit.png"
   inkscape:export-xdpi="377"
   inkscape:export-ydpi="377"><metadata
   id="metadata2713"><rdf:RDF><cc:Work
       rdf:about=""><dc:format>image/svg+xml</dc:format><dc:type
         rdf:resource="http://purl.org/dc/dcmitype/StillImage" /><dc:title /></cc:Work></rdf:RDF></metadata><defs
   id="defs2711" /><sodipodi:namedview
   pagecolor="#ffffff"
   bordercolor="#666666"
   borderopacity="1"
   objecttolerance="10"
   gridtolerance="10"
   guidetolerance="10"
   inkscape:pageopacity="0"
   inkscape:pageshadow="2"
   inkscape:window-width="1920"
   inkscape:window-height="1001"
   id="namedview2709"
   showgrid="false"
   inkscape:zoom="7.03"
   inkscape:cx="22.71599"
   inkscape:cy="35.557703"
   inkscape:window-x="-9"
   inkscape:window-y="-9"
   inkscape:window-maximized="1"
   inkscape:current-layer="Layer_1" />









<path
   style="fill:#c65000;fill-opacity:1;stroke-width:0.12043044;stroke-miterlimit:10;stroke-dasharray:none"
   inkscape:connector-curvature="0"
   d="M 68.213062,19.610088 C 65.073414,17.526979 62.864836,14.664246 60.728904,11.895605 58.648139,9.1987779 56.496002,6.4100649 53.44329,4.3247495 51.697956,3.1322923 49.779382,2.242924 47.579239,1.6058252 44.834075,0.81110272 41.635362,0.40803408 38.072041,0.40803408 c -3.545809,0 -6.722446,0.39901753 -9.441001,1.18619062 -2.17938,0.6310253 -4.072005,1.5119212 -5.786194,2.6927705 -2.994312,2.063412 -4.992034,4.7055468 -7.106547,7.5031018 -2.108025,2.789445 -4.288067,5.673719 -7.4614576,7.778007 -2.6238316,1.740251 -5.2716807,2.513249 -7.57694499,2.847265 v 0 0 0 L 66.706506,22.657323 h 7.283019 c -2.701707,0 -1.660322,-0.315795 -5.776463,-3.047235 z M 22.234946,12.185431 c 2.04964,-2.7121088 3.986369,-5.273784 6.753589,-7.1803087 3.527655,-2.4303879 6.873623,-2.7115585 9.083506,-2.7115585 2.233246,0 5.621389,0.2855909 9.23598,2.7546489 2.824971,1.9297204 4.912231,4.6348352 6.930727,7.2508303 2.20209,2.854078 4.479458,5.805382 7.865657,8.052366 1.409259,0.93522 2.927494,1.696246 4.602101,2.305914 L 7.8241967,22.432673 c 1.7258651,-0.619244 5.1228693,-1.169246 6.5613063,-2.122878 3.425781,-2.271846 5.674601,-5.247086 7.849443,-8.124364 z"
   id="path2-3"
   sodipodi:nodetypes="ccccscccccccccccccsccccccc" /><path
   style="fill:#fb8c00;fill-opacity:1;stroke-width:0.09343999;stroke-miterlimit:10;stroke-dasharray:none"
   inkscape:connector-curvature="0"
   d="M 52.565962,52.185173 C 51.017583,49.642396 49.928378,46.147959 48.875001,42.768376 47.84883,39.476454 46.78746,36.07237 45.281956,33.526899 44.421207,32.07131 43.475025,30.985689 42.38998,30.208006 c -1.353832,-0.97009 -2.931342,-1.462104 -4.688665,-1.462104 -1.748687,0 -3.315309,0.487068 -4.656019,1.447942 -1.074805,0.770269 -2.00819,1.845549 -2.853576,3.286968 -1.476706,2.518736 -2.461921,5.743897 -3.504737,9.158774 -1.039614,3.404976 -2.114746,6.925707 -3.679766,9.494339 -1.293995,2.124263 -2.599835,3.067835 -3.736722,3.475555 v 0 0 0 l 32.55248,0.295345 h 3.591765 c -1.332399,0 -0.818821,-0.385481 -2.848778,-3.719652 z M 29.890936,43.122158 c 1.01082,-3.310579 1.965957,-6.437525 3.330667,-8.764752 1.739734,-2.966687 3.389864,-3.309903 4.479712,-3.309903 1.10137,0 2.7723,0.348611 4.554909,3.362501 1.39319,2.355542 2.422565,5.65758 3.418026,8.850837 1.086005,3.483869 2.209134,7.086423 3.879107,9.829237 0.695004,1.141589 1.443752,2.070549 2.269618,2.814747 l -29.038989,-0.27422 c 0.851145,-0.755891 2.526446,-1.42726 3.235839,-2.591325 1.689493,-2.773161 2.798544,-6.404931 3.871111,-9.917122 z"
   id="path2-9"
   sodipodi:nodetypes="ccccscccccccccccccsccccccc" /><path
   style="stroke-width:0.04010514"
   inkscape:connector-curvature="0"
   d="M 46.187484,15.298466 H 39.370991 V 9.2578759 c 0,-0.6668816 -0.610759,-1.2081183 -1.363301,-1.2081183 h -0.908812 c -0.752541,0 -1.363291,0.5412367 -1.363291,1.2081183 v 6.0405901 h -6.816493 c -0.75254,0 -1.3633,0.541234 -1.3633,1.208118 v 0.805364 c 0,0.666881 0.61076,1.208117 1.3633,1.208117 h 6.816493 v 6.04059 c 0,0.666884 0.61075,1.208118 1.363291,1.208118 h 0.908812 c 0.752542,0 1.363301,-0.541234 1.363301,-1.208118 v -6.04059 h 6.816493 c 0.75254,0 1.3633,-0.541236 1.3633,-1.208117 v -0.805364 c 0,-0.666884 -0.61076,-1.208118 -1.3633,-1.208118 z m 0,0"
   id="path2" /></svg>