<?xml version="1.0" encoding="UTF-8" standalone="no"?>
<!-- Generator: Adobe Illustrator 16.0.0, SVG Export Plug-In . SVG Version: 6.00 Build 0)  -->

<svg
   xmlns:dc="http://purl.org/dc/elements/1.1/"
   xmlns:cc="http://creativecommons.org/ns#"
   xmlns:rdf="http://www.w3.org/1999/02/22-rdf-syntax-ns#"
   xmlns:svg="http://www.w3.org/2000/svg"
   xmlns="http://www.w3.org/2000/svg"
   xmlns:sodipodi="http://sodipodi.sourceforge.net/DTD/sodipodi-0.dtd"
   xmlns:inkscape="http://www.inkscape.org/namespaces/inkscape"
   version="1.1"
   id="Layer_1"
   x="0px"
   y="0px"
   width="74px"
   height="56px"
   viewBox="0 0 74 56"
   enable-background="new 0 0 74 56"
   xml:space="preserve"
   sodipodi:docname="processControl-module - kopie.svg"
   inkscape:version="0.92.3 (2405546, 2018-03-11)"
   inkscape:export-filename="C:\Users\derksk\OneDrive - Nyenrode Business Universiteit\Desktop\audit-fullaudit.png"
   inkscape:export-xdpi="377"
   inkscape:export-ydpi="377"><metadata
   id="metadata2713"><rdf:RDF><cc:Work
       rdf:about=""><dc:format>image/svg+xml</dc:format><dc:type
         rdf:resource="http://purl.org/dc/dcmitype/StillImage" /><dc:title /></cc:Work></rdf:RDF></metadata><defs
   id="defs2711" /><sodipodi:namedview
   pagecolor="#ffffff"
   bordercolor="#666666"
   borderopacity="1"
   objecttolerance="10"
   gridtolerance="10"
   guidetolerance="10"
   inkscape:pageopacity="0"
   inkscape:pageshadow="2"
   inkscape:window-width="1920"
   inkscape:window-height="1001"
   id="namedview2709"
   showgrid="false"
   inkscape:zoom="9.9419213"
   inkscape:cx="29.580172"
   inkscape:cy="24.337429"
   inkscape:window-x="-9"
   inkscape:window-y="-9"
   inkscape:window-maximized="1"
   inkscape:current-layer="Layer_1" />









<g
   id="g6"
   transform="matrix(0.19999099,0.07072993,-0.0675056,0.17877332,7.2613735,-5.983303)"
   style="fill:#c65000;fill-opacity:1"><g
     id="g4"
     style="fill:#c65000;fill-opacity:1"><path
       inkscape:connector-curvature="0"
       d="m 191.28,84.64 c -0.397,-3.491 -3.026,-6.315 -6.48,-6.96 L 164.48,73.92 C 163.305,70.222 161.806,66.635 160,63.2 l 11.76,-16.96 c 2.094,-2.828 2.094,-6.692 0,-9.52 -4.687,-5.942 -10.058,-11.313 -16,-16 -2.828,-2.094 -6.692,-2.094 -9.52,0 L 128.8,32 c -3.435,-1.806 -7.022,-3.305 -10.72,-4.48 L 114.32,7.2 C 113.675,3.746 110.851,1.117 107.36,0.72 99.817,-0.24 92.183,-0.24 84.64,0.72 81.149,1.117 78.325,3.746 77.68,7.2 L 73.92,27.52 C 70.222,28.695 66.635,30.194 63.2,32 L 46.24,20.24 c -2.828,-2.094 -6.692,-2.094 -9.52,0 -5.943,4.687 -11.313,10.058 -16,16 -2.094,2.828 -2.094,6.692 0,9.52 L 32,63.2 c -1.806,3.435 -3.305,7.022 -4.48,10.72 L 7.2,77.68 c -3.454,0.645 -6.083,3.469 -6.48,6.96 -0.96,7.543 -0.96,15.177 0,22.72 0.397,3.491 3.026,6.315 6.48,6.96 l 20.32,3.76 c 1.175,3.698 2.674,7.285 4.48,10.72 l -11.76,16.96 c -2.094,2.828 -2.094,6.692 0,9.52 4.687,5.942 10.058,11.313 16,16 2.828,2.094 6.692,2.094 9.52,0 L 63.2,160 c 3.435,1.806 7.022,3.305 10.72,4.48 l 3.76,20.32 c 0.645,3.454 3.469,6.083 6.96,6.48 7.543,0.96 15.177,0.96 22.72,0 3.491,-0.397 6.315,-3.026 6.96,-6.48 l 3.76,-20.32 c 3.698,-1.175 7.285,-2.674 10.72,-4.48 l 16.96,11.76 c 2.828,2.094 6.692,2.094 9.52,0 5.942,-4.687 11.313,-10.058 16,-16 2.094,-2.828 2.094,-6.692 0,-9.52 L 160,128.8 c 1.806,-3.435 3.305,-7.022 4.48,-10.72 l 20.32,-3.76 c 3.454,-0.645 6.083,-3.469 6.48,-6.96 0.96,-7.543 0.96,-15.177 0,-22.72 z m -15.12,11.52 c 0,1.2 0,2.4 0,3.68 l -19.2,3.52 c -3.107,0.576 -5.583,2.927 -6.32,6 -1.341,5.655 -3.583,11.057 -6.64,16 -1.723,2.651 -1.723,6.069 0,8.72 l 11.04,16 c -1.611,1.851 -3.349,3.589 -5.2,5.2 l -16,-11.04 c -2.651,-1.723 -6.069,-1.723 -8.72,0 -4.943,3.057 -10.345,5.299 -16,6.64 -3.073,0.737 -5.424,3.213 -6,6.32 L 99.68,176 c -2.56,0 -4.8,0 -7.36,0 L 88.8,156.8 c -0.576,-3.107 -2.927,-5.583 -6,-6.32 -5.655,-1.341 -11.057,-3.583 -16,-6.64 -2.651,-1.723 -6.069,-1.723 -8.72,0 l -16,11.04 c -1.851,-1.611 -3.589,-3.349 -5.2,-5.2 l 11.04,-16 c 1.723,-2.651 1.723,-6.069 0,-8.72 -3.057,-4.943 -5.299,-10.345 -6.64,-16 -0.737,-3.073 -3.213,-5.424 -6.32,-6 L 16,99.68 c 0,-1.28 0,-2.48 0,-3.68 0,-1.2 0,-2.4 0,-3.68 L 35.28,88.8 c 3.107,-0.576 5.583,-2.927 6.32,-6 1.341,-5.655 3.583,-11.057 6.64,-16 1.582,-2.66 1.489,-5.993 -0.24,-8.56 l -11.04,-16 c 1.611,-1.851 3.349,-3.589 5.2,-5.2 L 58.24,48 c 2.651,1.723 6.069,1.723 8.72,0 4.943,-3.057 10.345,-5.299 16,-6.64 3.073,-0.737 5.424,-3.213 6,-6.32 L 92.32,16 h 7.36 l 3.52,19.2 c 0.576,3.107 2.927,5.583 6,6.32 5.655,1.341 11.057,3.583 16,6.64 2.651,1.723 6.069,1.723 8.72,0 l 16,-11.04 c 1.851,1.611 3.589,3.349 5.2,5.2 L 144,58.24 c -1.723,2.651 -1.723,6.069 0,8.72 3.057,4.943 5.299,10.345 6.64,16 0.737,3.073 3.213,5.424 6.32,6 l 19.2,3.52 c 0,1.28 0,2.48 0,3.68 z"
       id="path2"
       style="fill:#c65000;fill-opacity:1" /></g></g><g
   id="g12"
   transform="matrix(0.19391446,0.07339249,-0.06545451,0.18550304,-4.2675044,-35.294896)"
   style="fill:#fb8c00;fill-opacity:1"><g
     id="g10"
     style="fill:#fb8c00;fill-opacity:1"><path
       inkscape:connector-curvature="0"
       d="m 479.28,228.64 c -0.397,-3.491 -3.026,-6.315 -6.48,-6.96 l -20.32,-3.76 c -1.175,-3.698 -2.674,-7.285 -4.48,-10.72 l 11.76,-16.96 c 2.094,-2.828 2.094,-6.692 0,-9.52 -4.687,-5.942 -10.058,-11.313 -16,-16 -2.828,-2.094 -6.692,-2.094 -9.52,0 L 416.8,176 c -3.435,-1.806 -7.022,-3.305 -10.72,-4.48 l -3.76,-20.32 c -0.645,-3.454 -3.469,-6.083 -6.96,-6.48 -7.543,-0.96 -15.177,-0.96 -22.72,0 -3.491,0.397 -6.315,3.026 -6.96,6.48 l -3.76,20.32 c -3.698,1.175 -7.285,2.674 -10.72,4.48 l -16.96,-11.76 c -2.828,-2.094 -6.692,-2.094 -9.52,0 -5.942,4.687 -11.313,10.058 -16,16 -2.094,2.828 -2.094,6.692 0,9.52 L 320,207.2 c -1.806,3.435 -3.305,7.022 -4.48,10.72 l -20.32,3.76 c -3.454,0.645 -6.083,3.469 -6.48,6.96 -0.96,7.543 -0.96,15.177 0,22.72 0.397,3.491 3.026,6.315 6.48,6.96 l 20.32,3.76 c 1.175,3.698 2.674,7.285 4.48,10.72 l -11.76,16.96 c -2.094,2.828 -2.094,6.692 0,9.52 4.687,5.942 10.058,11.313 16,16 2.828,2.094 6.692,2.094 9.52,0 L 351.2,304 c 3.435,1.806 7.022,3.305 10.72,4.48 l 3.76,20.32 c 0.645,3.454 3.469,6.083 6.96,6.48 7.543,0.96 15.177,0.96 22.72,0 3.491,-0.397 6.315,-3.026 6.96,-6.48 l 3.76,-20.32 c 3.698,-1.175 7.285,-2.674 10.72,-4.48 l 16.96,11.76 c 2.828,2.094 6.692,2.094 9.52,0 5.942,-4.687 11.313,-10.058 16,-16 2.094,-2.828 2.094,-6.692 0,-9.52 L 448,272.8 c 1.806,-3.435 3.305,-7.022 4.48,-10.72 l 20.32,-3.76 c 3.454,-0.645 6.083,-3.469 6.48,-6.96 0.96,-7.543 0.96,-15.177 0,-22.72 z M 464.48,240 c 0,1.2 -0.48,2.4 -0.48,3.68 l -19.2,3.52 c -3.107,0.576 -5.583,2.927 -6.32,6 -1.341,5.655 -3.583,11.058 -6.64,16 -1.723,2.651 -1.723,6.069 0,8.72 l 11.04,16 c -1.611,1.851 -3.349,3.589 -5.2,5.2 l -16,-11.04 c -2.651,-1.723 -6.069,-1.723 -8.72,0 -4.943,3.057 -10.345,5.299 -16,6.64 -3.073,0.737 -5.424,3.213 -6,6.32 L 387.68,320 h -7.36 l -3.52,-19.2 c -0.576,-3.107 -2.927,-5.583 -6,-6.32 -5.655,-1.341 -11.057,-3.583 -16,-6.64 -2.651,-1.723 -6.069,-1.723 -8.72,0 l -16,11.04 c -1.851,-1.611 -3.589,-3.349 -5.2,-5.2 l 11.04,-16 c 1.723,-2.651 1.723,-6.069 0,-8.72 -3.057,-4.943 -5.299,-10.345 -6.64,-16 -0.737,-3.073 -3.213,-5.424 -6.32,-6 L 304,243.68 c 0,-1.28 0,-2.48 0,-3.68 0,-1.2 0,-2.4 0,-3.68 l 19.2,-3.52 c 3.107,-0.576 5.583,-2.927 6.32,-6 1.341,-5.655 3.583,-11.057 6.64,-16 1.723,-2.651 1.723,-6.069 0,-8.72 l -11.04,-16 c 1.611,-1.851 3.349,-3.589 5.2,-5.2 l 16,11.04 c 2.651,1.723 6.069,1.723 8.72,0 4.943,-3.057 10.345,-5.299 16,-6.64 3.073,-0.737 5.424,-3.213 6,-6.32 l 3.52,-19.2 c 2.56,0 4.8,0 7.36,0 l 3.52,19.2 c 0.576,3.107 2.927,5.583 6,6.32 5.655,1.341 11.057,3.583 16,6.64 2.651,1.723 6.069,1.723 8.72,0 l 16,-11.04 c 1.851,1.611 3.589,3.349 5.2,5.2 l -11.04,16 c -1.723,2.651 -1.723,6.069 0,8.72 3.057,4.943 5.299,10.345 6.64,16 0.737,3.073 3.213,5.424 6.32,6 l 19.2,3.52 c 0,1.28 0,2.48 0,3.68 z"
       id="path8"
       style="fill:#fb8c00;fill-opacity:1" /></g></g><g
   id="g36"
   transform="matrix(0.11603205,0.04240265,-0.03916583,0.10717475,14.299769,-0.26629926)"><g
     id="g34" /></g><g
   id="g156"
   transform="matrix(0.16003069,0.05686356,-0.05401727,0.1437254,9.9589131,0.9336523)"
   style="fill:#c65000;fill-opacity:1"><g
     id="g154"
     style="fill:#c65000;fill-opacity:1"><path
       inkscape:connector-curvature="0"
       d="m 96,56 c -22.091,0 -40,17.909 -40,40 0,22.091 17.909,40 40,40 22.091,0 40,-17.909 40,-40 0,-22.091 -17.909,-40 -40,-40 z m 0,64 C 82.745,120 72,109.255 72,96 72,82.745 82.745,72 96,72 c 13.255,0 24,10.745 24,24 0,13.255 -10.745,24 -24,24 z"
       id="path152"
       style="fill:#c65000;fill-opacity:1" /></g></g><g
   id="g162"
   transform="matrix(0.13462481,0.05151999,-0.04544169,0.13021928,13.585342,-12.761897)"
   style="fill:#fb8c00;fill-opacity:1"><g
     id="g160"
     style="fill:#fb8c00;fill-opacity:1"><path
       inkscape:connector-curvature="0"
       d="m 384,200 c -22.091,0 -40,17.909 -40,40 0,22.091 17.909,40 40,40 22.091,0 40,-17.909 40,-40 0,-22.091 -17.909,-40 -40,-40 z m 0,64 c -13.255,0 -24,-10.745 -24,-24 0,-13.255 10.745,-24 24,-24 13.255,0 24,10.745 24,24 0,13.255 -10.745,24 -24,24 z"
       id="path158"
       style="fill:#fb8c00;fill-opacity:1" /></g></g><rect
   style="fill:#fb8c00;fill-opacity:1;stroke:#380000;stroke-width:0;stroke-linecap:round;stroke-linejoin:bevel;stroke-miterlimit:10;stroke-dasharray:none;stroke-opacity:1;paint-order:normal"
   id="rect887"
   width="8.1691132"
   height="2.0775974"
   x="54.353344"
   y="32.649361" /><rect
   style="fill:#c65000;fill-opacity:1;stroke:#380000;stroke-width:0;stroke-linecap:round;stroke-linejoin:bevel;stroke-miterlimit:10;stroke-dasharray:none;stroke-opacity:1;paint-order:normal"
   id="rect889"
   width="2.7686393"
   height="10.365908"
   x="21.286644"
   y="-5.980679"
   transform="matrix(0.79232063,0.61010492,-0.55928023,0.82897866,0,0)" /></svg>