<?xml version="1.0" encoding="UTF-8" standalone="no"?>
<!-- Generator: Adobe Illustrator 16.0.0, SVG Export Plug-In . SVG Version: 6.00 Build 0)  -->

<svg
   xmlns:dc="http://purl.org/dc/elements/1.1/"
   xmlns:cc="http://creativecommons.org/ns#"
   xmlns:rdf="http://www.w3.org/1999/02/22-rdf-syntax-ns#"
   xmlns:svg="http://www.w3.org/2000/svg"
   xmlns="http://www.w3.org/2000/svg"
   xmlns:sodipodi="http://sodipodi.sourceforge.net/DTD/sodipodi-0.dtd"
   xmlns:inkscape="http://www.inkscape.org/namespaces/inkscape"
   version="1.1"
   id="Layer_1"
   x="0px"
   y="0px"
   width="74px"
   height="56px"
   viewBox="0 0 74 56"
   enable-background="new 0 0 74 56"
   xml:space="preserve"
   sodipodi:docname="qualityControl-capability.svg"
   inkscape:version="0.92.3 (2405546, 2018-03-11)"
   inkscape:export-filename="C:\Users\derksk\OneDrive - Nyenrode Business Universiteit\Desktop\audit-fullaudit.png"
   inkscape:export-xdpi="377"
   inkscape:export-ydpi="377"><metadata
   id="metadata2713"><rdf:RDF><cc:Work
       rdf:about=""><dc:format>image/svg+xml</dc:format><dc:type
         rdf:resource="http://purl.org/dc/dcmitype/StillImage" /><dc:title /></cc:Work></rdf:RDF></metadata><defs
   id="defs2711"><marker
     inkscape:stockid="Arrow1Lend"
     orient="auto"
     refY="0.0"
     refX="0.0"
     id="marker1131"
     style="overflow:visible;"
     inkscape:isstock="true"><path
       id="path1129"
       d="M 0.0,0.0 L 5.0,-5.0 L -12.5,0.0 L 5.0,5.0 L 0.0,0.0 z "
       style="fill-rule:evenodd;stroke:#000000;stroke-width:1.0pt;"
       transform="scale(0.8) rotate(180) translate(12.5,0)" /></marker><marker
     inkscape:stockid="Arrow1Lend"
     orient="auto"
     refY="0.0"
     refX="0.0"
     id="Arrow1Lend"
     style="overflow:visible;"
     inkscape:isstock="true"><path
       id="path862"
       d="M 0.0,0.0 L 5.0,-5.0 L -12.5,0.0 L 5.0,5.0 L 0.0,0.0 z "
       style="fill-rule:evenodd;stroke:#000000;stroke-width:1.0pt;"
       transform="scale(0.8) rotate(180) translate(12.5,0)" /></marker></defs><sodipodi:namedview
   pagecolor="#ffffff"
   bordercolor="#666666"
   borderopacity="1"
   objecttolerance="10"
   gridtolerance="10"
   guidetolerance="10"
   inkscape:pageopacity="0"
   inkscape:pageshadow="2"
   inkscape:window-width="1920"
   inkscape:window-height="1001"
   id="namedview2709"
   showgrid="false"
   inkscape:zoom="12.239653"
   inkscape:cx="31.146604"
   inkscape:cy="25.636495"
   inkscape:window-x="1791"
   inkscape:window-y="-9"
   inkscape:window-maximized="1"
   inkscape:current-layer="Layer_1" />









<path
   style="fill:#9d160c;fill-opacity:1;stroke-width:0.05598084;stroke-miterlimit:10;stroke-dasharray:none"
   inkscape:connector-curvature="0"
   d="M 62.173816,24.594031 C 59.567023,24.003479 55.891056,20.154549 53.567335,17.36223 52.438056,15.326978 49.338258,10.765463 47.673209,8.7732259 46.918315,7.5979845 46.468206,7.4999118 45.92463,6.9251944 45.246373,6.2082566 44.394839,5.7655043 43.39368,5.609406 42.39744,5.4540749 41.458215,5.614496 40.602253,6.0864216 39.91606,6.4647259 39.281181,7.0431964 38.661324,7.8546889 c -1.08284,1.4180464 -1.953422,3.3142591 -2.875013,5.3220441 -0.918817,2.00198 -1.86897,4.072003 -3.006908,5.512895 -0.940918,1.191645 -1.775356,1.65602 -2.462148,1.805814 v 0 0 0 l 1.999635,0.325086 39.673737,6.487494 c -3.200635,-0.727439 0,0 -9.816811,-2.713993 z M 37.547897,14.82961 c 0.73946,-1.82156 3.280499,-6.1538527 2.920453,-5.6252872 -0.331653,0.4868803 1.839544,-1.6696215 2.46044,-1.5728132 0.627458,0.097832 1.793035,0.1554616 3.149577,1.965044 0.567811,1.5725934 1.812035,3.2024674 2.871514,5.2506064 1.923201,2.924478 3.817659,5.532542 6.044342,7.736679 1.567554,1.822991 4.054486,2.108543 4.453618,2.639642 L 32.31689,20.820528 c 0.897462,0.308206 1.714994,0.05568 2.230777,-0.597319 1.228466,-1.555639 2.052356,-3.328601 3.00023,-5.393599 z"
   id="path2-8-6"
   sodipodi:nodetypes="ccccsccccccccccccscccccccc" /><path
   style="fill:#fb8c00;fill-opacity:1;stroke-width:0.07768277;stroke-miterlimit:10;stroke-dasharray:none"
   inkscape:connector-curvature="0"
   d="M 60.799718,36.900322 C 57.22778,36.311614 51.952889,31.203583 48.590086,27.465055 46.902337,24.686248 42.350434,18.512541 39.941511,15.845894 c -1.113604,-1.594788 -1.730053,-1.690912 -2.510506,-2.454145 -0.973806,-0.952085 -2.160324,-1.498748 -3.52658,-1.624559 -1.35954,-0.125194 -2.617069,0.19201 -3.737422,0.943063 -0.898151,0.602068 -1.711108,1.483134 -2.485375,2.693263 -1.352546,2.114618 -2.380319,4.887156 -3.468276,7.822811 -1.084663,2.927158 -2.206338,5.953813 -3.631593,8.106091 -1.178474,1.77996 -2.27031,2.518256 -3.187296,2.796282 v 0 0 0 l 2.729896,0.270162 54.165435,5.413503 c -4.385834,-0.72616 0,0 -13.490076,-2.912043 z M 26.726057,25.402441 c 0.856336,-2.654142 3.951031,-9.04129 3.505804,-8.257244 -0.410111,0.722214 2.356051,-2.543674 3.203368,-2.465648 0.856275,0.07885 2.437116,0.04931 4.41441,2.486346 0.891941,2.17622 2.703163,4.3691 4.297536,7.172848 2.831572,3.96421 5.599318,7.482392 8.784489,10.395959 2.263717,2.43591 5.649503,2.603478 6.231173,3.318637 L 20.124359,34.398861 c 1.238014,0.351446 2.323704,-0.08479 2.969723,-1.060167 1.538634,-2.32367 2.512985,-4.916942 3.631975,-7.936253 z"
   id="path2-8"
   sodipodi:nodetypes="ccccsccccccccccccscccccccc" /><path
   style="fill:#c65000;fill-opacity:1;stroke-width:0.10469344;stroke-miterlimit:10;stroke-dasharray:none"
   inkscape:connector-curvature="0"
   d="M 54.818635,53.47158 C 50.22727,52.71865 43.449212,45.61779 39.128385,40.40973 36.960298,36.520712 31.112209,27.898145 28.017007,24.183527 c -1.430665,-2.22875 -2.223052,-2.350955 -3.225905,-3.412122 -1.251305,-1.323737 -2.776264,-2.069936 -4.532501,-2.21753 -1.747605,-0.146866 -3.364315,0.329096 -4.804921,1.415033 -1.154886,0.870519 -2.200411,2.133368 -3.196372,3.86031 -1.73982,3.017697 -3.0625074,6.957832 -4.4626443,11.129766 -1.3959005,4.159855 -2.8394302,8.461113 -4.6727406,11.533634 -1.5158729,2.541002 -2.91981665,3.608283 -4.09873948,4.021367 v 0 0 0 l 3.50910308,0.321446 69.6261143,6.452791 c -5.637547,-0.929166 0,0 -17.339766,-3.816637 z M 11.023541,37.978216 c 1.102243,-3.769059 5.083879,-12.862068 4.511125,-11.744424 -0.527585,1.029503 3.030045,-3.646092 4.119219,-3.554559 1.100689,0.0925 3.132856,0.01585 5.673331,3.415576 1.145407,3.055174 3.47253,6.113585 5.520565,10.039908 3.637816,5.538666 7.193824,10.44853 11.286756,14.494889 2.908669,3.391811 7.260965,3.5538 8.008311,4.551434 L 2.5322876,50.835422 c 1.5912644,0.469233 2.9871381,-0.171126 3.8181168,-1.563536 1.9791471,-3.317185 3.2330634,-7.002848 4.6731366,-11.29367 z"
   id="path2"
   sodipodi:nodetypes="ccccsccccccccccccscccccccc" /></svg>